<svg width="64" height="64" viewBox="0 0 64 64" fill="none" xmlns="http://www.w3.org/2000/svg">
<path d="M52 40H40V36H52V40Z" fill="#2594AD"/>
<path d="M60 56H48V52H60V56Z" fill="#2594AD"/>
<path d="M56 48H44V44H56V48Z" fill="#2594AD"/>
<path d="M34.0058 40C33.9917 38.3124 33.5416 36.6572 32.6992 35.1948C31.8567 33.7325 30.6506 32.5128 29.1978 31.654L43.9998 6L40.5398 4L25.3858 30.252C23.526 29.8365 21.5917 29.894 19.7598 30.4191C17.928 30.9443 16.257 31.9203 14.8998 33.258C7.41179 40.48 7.99179 57.364 8.01979 58.08C8.04047 58.5964 8.26027 59.0848 8.63313 59.4428C9.00598 59.8007 9.50293 60.0004 10.0198 60H40.0018C40.4216 60 40.8307 59.8679 41.1712 59.6225C41.5117 59.377 41.7664 59.0307 41.8992 58.6325C42.0319 58.2342 42.036 57.8043 41.9108 57.4037C41.7857 57.003 41.5376 56.6519 41.2018 56.4C34.1218 51.088 34.0058 40.108 34.0058 40ZM23.8598 33.994C25.4605 34.0116 26.9929 34.6457 28.138 35.7643C29.2831 36.883 29.9528 38.4001 30.0078 40C30.0078 40.076 30.0118 40.416 30.0418 40.938L18.2418 35.69C19.0191 35.0491 19.916 34.569 20.8805 34.2779C21.845 33.9867 22.8577 33.8902 23.8598 33.994V33.994ZM30.8998 56C29.3012 54.3722 28.2822 52.264 27.9998 50H23.9998C24.143 52.1286 24.8079 54.1892 25.9358 56H21.4898C20.6673 53.4044 20.1669 50.7176 19.9998 48H15.9998C16.1288 50.7095 16.5751 53.3945 17.3298 56H11.9998C12.0618 52.328 12.5798 44.216 15.6058 38.894L30.6718 45.594C31.3957 49.3526 32.9389 52.9055 35.1918 56H30.8998Z" fill="#2594AD"/>
</svg>
