<svg width="74" height="74" viewBox="0 0 74 74" fill="none" xmlns="http://www.w3.org/2000/svg">
<path d="M37 11.5625C28.0853 11.5625 20.8125 18.8353 20.8125 27.75C20.8125 33.3231 23.6569 38.2719 27.9674 41.1926C19.7187 44.7307 13.875 52.9169 13.875 62.4375H18.5C18.5 52.1931 26.7556 43.9375 37 43.9375C47.2444 43.9375 55.5 52.1931 55.5 62.4375H60.125C60.125 52.9169 54.2813 44.733 46.0326 41.1903C48.2326 39.7051 50.0351 37.7035 51.2824 35.3604C52.5298 33.0174 53.1838 30.4044 53.1875 27.75C53.1875 18.8353 45.9147 11.5625 37 11.5625ZM37 16.1875C43.4126 16.1875 48.5625 21.3374 48.5625 27.75C48.5625 34.1626 43.4126 39.3125 37 39.3125C30.5874 39.3125 25.4375 34.1626 25.4375 27.75C25.4375 21.3374 30.5874 16.1875 37 16.1875Z" fill="#2594AD"/>
</svg>
