<svg width="50" height="52" viewBox="0 0 50 52" fill="none" xmlns="http://www.w3.org/2000/svg">
<path d="M25 0C16.2386 0 9.09091 7.11044 9.09091 15.8261C9.09091 21.2047 11.8409 25.9638 15.9795 28.8261C6.65 32.448 0 41.4915 0 52H4.54545C4.54545 42.0567 11.7977 33.7457 21.3068 32.0049L22.7273 36.1739H27.2727L28.6932 32.0049C38.2023 33.7457 45.4545 42.0567 45.4545 52H50C50 41.4915 43.35 32.448 34.0205 28.8261C38.1568 25.9638 40.9091 21.2047 40.9091 15.8261C40.9091 7.11044 33.7614 0 25 0ZM25 4.52174C31.3023 4.52174 36.3636 9.5567 36.3636 15.8261C36.3636 22.0955 31.3023 27.1304 25 27.1304C18.6977 27.1304 13.6364 22.0955 13.6364 15.8261C13.6364 9.5567 18.6977 4.52174 25 4.52174ZM22.7273 38.4348L20.4545 52H29.5455L27.2727 38.4348H22.7273Z" fill="#2594AD"/>
</svg>
